<svg xmlns="http://www.w3.org/2000/svg" xmlns:xlink="http://www.w3.org/1999/xlink" xmlns:lucid="lucid" width="1118.49" height="642.5"><g transform="translate(-102.00920282411425 -379.5)" lucid:page-tab-id="ZvKdXZheBP8n"><path d="M0 0h1360v1760H0z" fill="#fff"/><path d="M499.5 820.5h-79a8 8 0 0 1-8-8v-62a8 8 0 0 0-8-8h-44" stroke="#6f7681" fill="none"/><path d="M519.28 830.5l-20-10 20-10" stroke="#6f7681" fill="#fff" fill-opacity="0"/><path d="M519.28 820.5h-20M499.28 810.5v20M350.5 752.5v-20M340.5 742.5h20M360.5 752.5v-20" stroke="#6f7681" fill="#fff"/><path d="M122.5 690a5 5 0 0 1 5-5H335a5 5 0 0 1 5 5v235a5 5 0 0 1-5 5H127.5a5 5 0 0 1-5-5z" fill="#fff"/><path d="M122.5 760v35H340v-35M122.5 828v36H340v-36M122.5 898v27a5 5 0 0 0 5 5H335a5 5 0 0 0 5-5v-27" fill="#f2f2ff"/><path d="M122.5 725v-35a5 5 0 0 1 5-5H335a5 5 0 0 1 5 5v35" fill="#dedeff"/><path d="M122.5 690a5 5 0 0 1 5-5H335a5 5 0 0 1 5 5v235a5 5 0 0 1-5 5H127.5a5 5 0 0 1-5-5zM122.5 725H340M216 725v205" stroke="#6f7681" fill="none"/><use xlink:href="#a" transform="matrix(1,0,0,1,132.50920282411425,685) translate(11.2 25.15555555555556)"/><use xlink:href="#b" transform="matrix(1,0,0,1,127.50920282411425,727.5) translate(25.025 18.6)"/><use xlink:href="#c" transform="matrix(1,0,0,1,221,727.5) translate(11.2 20.155555555555555)"/><use xlink:href="#d" transform="matrix(1,0,0,1,127.50920282411425,762.5) translate(0.5750000000000028 18.1)"/><use xlink:href="#e" transform="matrix(1,0,0,1,221,762.5) translate(11.2 19.566666666666666)"/><use xlink:href="#d" transform="matrix(1,0,0,1,127.50920282411425,796.5) translate(0.5750000000000028 18.1)"/><use xlink:href="#f" transform="matrix(1,0,0,1,221,796.5) translate(11.2 19.566666666666666)"/><use xlink:href="#g" transform="matrix(1,0,0,1,127.50920282411425,830.5) translate(12.049999999999997 18.6)"/><use xlink:href="#h" transform="matrix(1,0,0,1,221,830.5) translate(11.2 20.155555555555555)"/><use xlink:href="#g" transform="matrix(1,0,0,1,127.50920282411425,865.5) translate(12.049999999999997 18.6)"/><use xlink:href="#i" transform="matrix(1,0,0,1,221,865.5) translate(11.2 20.155555555555555)"/><use xlink:href="#g" transform="matrix(1,0,0,1,127.50920282411425,900.5) translate(12.049999999999997 17.1)"/><use xlink:href="#j" transform="matrix(1,0,0,1,221,900.5) translate(0 17.1)"/><use xlink:href="#k" transform="matrix(1,0,0,1,221,900.5) translate(10 17.1)"/><path d="M520 665a5 5 0 0 1 5-5h230a5 5 0 0 1 5 5v238a5 5 0 0 1-5 5H525a5 5 0 0 1-5-5z" fill="#fff"/><path d="M520 735v35h240v-35M520 803v36h240v-36M520 873v30a5 5 0 0 0 5 5h230a5 5 0 0 0 5-5v-30" fill="#f2f2ff"/><path d="M520 700v-35a5 5 0 0 1 5-5h230a5 5 0 0 1 5 5v35" fill="#dedeff"/><path d="M520 665a5 5 0 0 1 5-5h230a5 5 0 0 1 5 5v238a5 5 0 0 1-5 5H525a5 5 0 0 1-5-5zM520 700h240M627 700v208" stroke="#6f7681" fill="none"/><use xlink:href="#l" transform="matrix(1,0,0,1,530,660) translate(11.2 25.15555555555556)"/><use xlink:href="#b" transform="matrix(1,0,0,1,525,702.5) translate(31.525 18.6)"/><use xlink:href="#m" transform="matrix(1,0,0,1,632,702.5) translate(11.2 20.155555555555555)"/><use xlink:href="#d" transform="matrix(1,0,0,1,525,737.5) translate(7.075000000000003 18.1)"/><use xlink:href="#e" transform="matrix(1,0,0,1,632,737.5) translate(11.2 19.566666666666666)"/><use xlink:href="#d" transform="matrix(1,0,0,1,525,771.5) translate(7.075000000000003 18.1)"/><use xlink:href="#f" transform="matrix(1,0,0,1,632,771.5) translate(11.2 19.566666666666666)"/><use xlink:href="#b" transform="matrix(1,0,0,1,525,805.5) translate(31.525 18.6)"/><use xlink:href="#n" transform="matrix(1,0,0,1,632,805.5) translate(11.2 20.155555555555555)"/><use xlink:href="#g" transform="matrix(1,0,0,1,525,840.5) translate(18.549999999999997 18.6)"/><use xlink:href="#o" transform="matrix(1,0,0,1,632,840.5) translate(11.2 20.155555555555555)"/><use xlink:href="#g" transform="matrix(1,0,0,1,525,875.5) translate(18.549999999999997 18.6)"/><use xlink:href="#p" transform="matrix(1,0,0,1,632,875.5) translate(11.2 20.155555555555555)"/><path d="M960 405a5 5 0 0 1 5-5h230a5 5 0 0 1 5 5v273a5 5 0 0 1-5 5H965a5 5 0 0 1-5-5z" fill="#fff"/><path d="M960 475v35h240v-35M960 543v36h240v-36M960 613v36h240v-36" fill="#f2f2ff"/><path d="M960 440v-35a5 5 0 0 1 5-5h230a5 5 0 0 1 5 5v35" fill="#dedeff"/><path d="M960 405a5 5 0 0 1 5-5h230a5 5 0 0 1 5 5v273a5 5 0 0 1-5 5H965a5 5 0 0 1-5-5zM960 440h240M1063 440v243" stroke="#6f7681" fill="none"/><use xlink:href="#q" transform="matrix(1,0,0,1,969.9999999999997,400) translate(11.2 25.15555555555556)"/><use xlink:href="#b" transform="matrix(1,0,0,1,964.9999999999997,442.5) translate(30.025 18.6)"/><use xlink:href="#m" transform="matrix(1,0,0,1,1068,442.5) translate(11.2 20.155555555555555)"/><use xlink:href="#d" transform="matrix(1,0,0,1,964.9999999999997,477.5) translate(5.575000000000003 18.1)"/><use xlink:href="#e" transform="matrix(1,0,0,1,1068,477.5) translate(11.2 19.566666666666666)"/><use xlink:href="#d" transform="matrix(1,0,0,1,964.9999999999997,511.5) translate(5.575000000000003 18.1)"/><use xlink:href="#f" transform="matrix(1,0,0,1,1068,511.5) translate(11.2 19.566666666666666)"/><use xlink:href="#b" transform="matrix(1,0,0,1,964.9999999999997,545.5) translate(30.025 18.6)"/><use xlink:href="#r" transform="matrix(1,0,0,1,1068,545.5) translate(11.2 20.155555555555555)"/><use xlink:href="#s" transform="matrix(1,0,0,1,964.9999999999997,580.5) translate(24.525 18.6)"/><use xlink:href="#t" transform="matrix(1,0,0,1,1068,580.5) translate(11.2 20.155555555555555)"/><use xlink:href="#g" transform="matrix(1,0,0,1,964.9999999999997,615.5) translate(17.049999999999997 18.6)"/><use xlink:href="#u" transform="matrix(1,0,0,1,1068,615.5) translate(11.2 20.155555555555555)"/><use xlink:href="#g" transform="matrix(1,0,0,1,964.9999999999997,650.5) translate(17.049999999999997 18.6)"/><use xlink:href="#v" transform="matrix(1,0,0,1,1068,650.5) translate(11.2 20.155555555555555)"/><path d="M960 767.5a5 5 0 0 1 5-5h230a5 5 0 0 1 5 5v229a5 5 0 0 1-5 5H965a5 5 0 0 1-5-5z" fill="#fff"/><path d="M960 834.5v35h240v-35M960 902.5v36h240v-36M960 969.5v27a5 5 0 0 0 5 5h230a5 5 0 0 0 5-5v-27" fill="#f2f2ff"/><path d="M960 802.5v-35a5 5 0 0 1 5-5h230a5 5 0 0 1 5 5v35" fill="#dedeff"/><path d="M960 767.5a5 5 0 0 1 5-5h230a5 5 0 0 1 5 5v229a5 5 0 0 1-5 5H965a5 5 0 0 1-5-5zM960 802.5h240M1060 802.5v199" stroke="#6f7681" fill="none"/><use xlink:href="#w" transform="matrix(1,0,0,1,969.9999999999999,762.5) translate(0 23.555555555555557)"/><use xlink:href="#b" transform="matrix(1,0,0,1,964.9999999999999,805) translate(28.525 17.1)"/><use xlink:href="#x" transform="matrix(1,0,0,1,1065,805) translate(0 17.055555555555557)"/><use xlink:href="#y" transform="matrix(1,0,0,1,1065,805) translate(9.876543209876544 17.055555555555557)"/><use xlink:href="#d" transform="matrix(1,0,0,1,964.9999999999999,837) translate(4.075000000000003 18.1)"/><use xlink:href="#e" transform="matrix(1,0,0,1,1065,837) translate(11.2 19.566666666666666)"/><use xlink:href="#d" transform="matrix(1,0,0,1,964.9999999999999,871) translate(4.075000000000003 18.1)"/><use xlink:href="#f" transform="matrix(1,0,0,1,1065,871) translate(11.2 19.566666666666666)"/><use xlink:href="#b" transform="matrix(1,0,0,1,964.9999999999999,905) translate(28.525 18.6)"/><use xlink:href="#r" transform="matrix(1,0,0,1,1065,905) translate(11.2 20.155555555555555)"/><use xlink:href="#z" transform="matrix(1,0,0,1,964.9999999999999,940) translate(36.025 17.1)"/><use xlink:href="#x" transform="matrix(1,0,0,1,1065,940) translate(0 17.055555555555557)"/><use xlink:href="#A" transform="matrix(1,0,0,1,1065,940) translate(9.876543209876544 17.055555555555557)"/><use xlink:href="#g" transform="matrix(1,0,0,1,964.9999999999999,972) translate(15.549999999999997 17.1)"/><use xlink:href="#j" transform="matrix(1,0,0,1,1065,972) translate(0 17.1)"/><use xlink:href="#B" transform="matrix(1,0,0,1,1065,972) translate(10 17.1)"/><path d="M780.5 717.5H848a12 12 0 0 0 12-12v-133a12 12 0 0 1 12-12h68.1" stroke="#6f7681" fill="none"/><path d="M780.5 727.5v-20M760.5 717.5h20" stroke="#6f7681" fill="#fff"/><path d="M959.28 570.5l-20-10 20-10" stroke="#6f7681" fill="#fff" fill-opacity="0"/><path d="M959.28 560.5h-20" stroke="#6f7681" fill="#fff"/><path d="M780.5 717.5H848a12 12 0 0 1 12 12V908a12 12 0 0 0 12 12h68.1" stroke="#6f7681" fill="none"/><path d="M780.5 727.5v-20M760.5 717.5h20" stroke="#6f7681" fill="#fff"/><path d="M959.28 930l-20-10 20-10" stroke="#6f7681" fill="#fff" fill-opacity="0"/><path d="M959.28 920h-20" stroke="#6f7681" fill="#fff"/><defs><path d="M84 4C-5 8 30-112 23-190h32v120c0 31 7 50 39 49 72-2 45-101 50-169h31l1 190h-30c-1-10 1-25-2-33-11 22-28 36-60 37" id="C"/><path d="M135-143c-3-34-86-38-87 0 15 53 115 12 119 90S17 21 10-45l28-5c4 36 97 45 98 0-10-56-113-15-118-90-4-57 82-63 122-42 12 7 21 19 24 35" id="D"/><path d="M100-194c63 0 86 42 84 106H49c0 40 14 67 53 68 26 1 43-12 49-29l28 8c-11 28-37 45-77 45C44 4 14-33 15-96c1-61 26-98 85-98zm52 81c6-60-76-77-97-28-3 7-6 17-6 28h103" id="E"/><path d="M114-163C36-179 61-72 57 0H25l-1-190h30c1 12-1 29 2 39 6-27 23-49 58-41v29" id="F"/><g id="a"><use transform="matrix(0.04938271604938272,0,0,0.04938271604938272,0,0)" xlink:href="#C"/><use transform="matrix(0.04938271604938272,0,0,0.04938271604938272,9.876543209876544,0)" xlink:href="#D"/><use transform="matrix(0.04938271604938272,0,0,0.04938271604938272,18.765432098765434,0)" xlink:href="#E"/><use transform="matrix(0.04938271604938272,0,0,0.04938271604938272,28.641975308641978,0)" xlink:href="#F"/><use transform="matrix(0.04938271604938272,0,0,0.04938271604938272,34.51851851851852,0)" xlink:href="#D"/></g><path d="M24-231v-30h32v30H24zM24 0v-190h32V0H24" id="G"/><path d="M85-194c31 0 48 13 60 33l-1-100h32l1 261h-30c-2-10 0-23-3-31C134-8 116 4 85 4 32 4 16-35 15-94c0-66 23-100 70-100zm9 24c-40 0-46 34-46 75 0 40 6 74 45 74 42 0 51-32 51-76 0-42-9-74-50-73" id="H"/><g id="b"><use transform="matrix(0.05,0,0,0.05,0,0)" xlink:href="#C"/><use transform="matrix(0.05,0,0,0.05,10,0)" xlink:href="#C"/><use transform="matrix(0.05,0,0,0.05,20,0)" xlink:href="#G"/><use transform="matrix(0.05,0,0,0.05,23.95,0)" xlink:href="#H"/></g><g id="c"><use transform="matrix(0.04938271604938272,0,0,0.04938271604938272,0,0)" xlink:href="#G"/><use transform="matrix(0.04938271604938272,0,0,0.04938271604938272,3.901234567901235,0)" xlink:href="#H"/></g><path d="M59-47c-2 24 18 29 38 22v24C64 9 27 4 27-40v-127H5v-23h24l9-43h21v43h35v23H59v120" id="I"/><path d="M210-169c-67 3-38 105-44 169h-31v-121c0-29-5-50-35-48C34-165 62-65 56 0H25l-1-190h30c1 10-1 24 2 32 10-44 99-50 107 0 11-21 27-35 58-36 85-2 47 119 55 194h-31v-121c0-29-5-49-35-48" id="J"/><path d="M141-36C126-15 110 5 73 4 37 3 15-17 15-53c-1-64 63-63 125-63 3-35-9-54-41-54-24 1-41 7-42 31l-33-3c5-37 33-52 76-52 45 0 72 20 72 64v82c-1 20 7 32 28 27v20c-31 9-61-2-59-35zM48-53c0 20 12 33 32 33 41-3 63-29 60-74-43 2-92-5-92 41" id="K"/><path d="M115-194c55 1 70 41 70 98S169 2 115 4C84 4 66-9 55-30l1 105H24l-1-265h31l2 30c10-21 28-34 59-34zm-8 174c40 0 45-34 45-75s-6-73-45-74c-42 0-51 32-51 76 0 43 10 73 51 73" id="L"/><g id="d"><use transform="matrix(0.05,0,0,0.05,0,0)" xlink:href="#I"/><use transform="matrix(0.05,0,0,0.05,5,0)" xlink:href="#G"/><use transform="matrix(0.05,0,0,0.05,8.95,0)" xlink:href="#J"/><use transform="matrix(0.05,0,0,0.05,23.9,0)" xlink:href="#E"/><use transform="matrix(0.05,0,0,0.05,33.9,0)" xlink:href="#D"/><use transform="matrix(0.05,0,0,0.05,42.9,0)" xlink:href="#I"/><use transform="matrix(0.05,0,0,0.05,47.9,0)" xlink:href="#K"/><use transform="matrix(0.05,0,0,0.05,57.900000000000006,0)" xlink:href="#J"/><use transform="matrix(0.05,0,0,0.05,72.85,0)" xlink:href="#L"/></g><path d="M96-169c-40 0-48 33-48 73s9 75 48 75c24 0 41-14 43-38l32 2c-6 37-31 61-74 61-59 0-76-41-82-99-10-93 101-131 147-64 4 7 5 14 7 22l-32 3c-4-21-16-35-41-35" id="M"/><path d="M205 0l-28-72H64L36 0H1l101-248h38L239 0h-34zm-38-99l-47-123c-12 45-31 82-46 123h93" id="N"/><g id="e"><use transform="matrix(0.048148148148148155,0,0,0.048148148148148155,0,0)" xlink:href="#M"/><use transform="matrix(0.048148148148148155,0,0,0.048148148148148155,8.666666666666668,0)" xlink:href="#F"/><use transform="matrix(0.048148148148148155,0,0,0.048148148148148155,14.396296296296299,0)" xlink:href="#E"/><use transform="matrix(0.048148148148148155,0,0,0.048148148148148155,24.025925925925932,0)" xlink:href="#K"/><use transform="matrix(0.048148148148148155,0,0,0.048148148148148155,33.655555555555566,0)" xlink:href="#I"/><use transform="matrix(0.048148148148148155,0,0,0.048148148148148155,38.47037037037038,0)" xlink:href="#E"/><use transform="matrix(0.048148148148148155,0,0,0.048148148148148155,48.100000000000016,0)" xlink:href="#H"/><use transform="matrix(0.048148148148148155,0,0,0.048148148148148155,57.72962962962965,0)" xlink:href="#N"/><use transform="matrix(0.048148148148148155,0,0,0.048148148148148155,69.28518518518521,0)" xlink:href="#I"/></g><g id="f"><use transform="matrix(0.048148148148148155,0,0,0.048148148148148155,0,0)" xlink:href="#C"/><use transform="matrix(0.048148148148148155,0,0,0.048148148148148155,9.629629629629632,0)" xlink:href="#L"/><use transform="matrix(0.048148148148148155,0,0,0.048148148148148155,19.259259259259263,0)" xlink:href="#H"/><use transform="matrix(0.048148148148148155,0,0,0.048148148148148155,28.888888888888893,0)" xlink:href="#K"/><use transform="matrix(0.048148148148148155,0,0,0.048148148148148155,38.518518518518526,0)" xlink:href="#I"/><use transform="matrix(0.048148148148148155,0,0,0.048148148148148155,43.33333333333334,0)" xlink:href="#E"/><use transform="matrix(0.048148148148148155,0,0,0.048148148148148155,52.96296296296297,0)" xlink:href="#H"/><use transform="matrix(0.048148148148148155,0,0,0.048148148148148155,62.59259259259261,0)" xlink:href="#N"/><use transform="matrix(0.048148148148148155,0,0,0.048148148148148155,74.14814814814817,0)" xlink:href="#I"/></g><path d="M108 0H70L1-190h34L89-25l56-165h34" id="O"/><path d="M106-169C34-169 62-67 57 0H25v-261h32l-1 103c12-21 28-36 61-36 89 0 53 116 60 194h-32v-121c2-32-8-49-39-48" id="P"/><g id="g"><use transform="matrix(0.05,0,0,0.05,0,0)" xlink:href="#O"/><use transform="matrix(0.05,0,0,0.05,9,0)" xlink:href="#K"/><use transform="matrix(0.05,0,0,0.05,19,0)" xlink:href="#F"/><use transform="matrix(0.05,0,0,0.05,24.95,0)" xlink:href="#M"/><use transform="matrix(0.05,0,0,0.05,33.95,0)" xlink:href="#P"/><use transform="matrix(0.05,0,0,0.05,43.95,0)" xlink:href="#K"/><use transform="matrix(0.05,0,0,0.05,53.95,0)" xlink:href="#F"/></g><path d="M117-194c89-4 53 116 60 194h-32v-121c0-31-8-49-39-48C34-167 62-67 57 0H25l-1-190h30c1 10-1 24 2 32 11-22 29-35 61-36" id="Q"/><g id="h"><use transform="matrix(0.04938271604938272,0,0,0.04938271604938272,0,0)" xlink:href="#Q"/><use transform="matrix(0.04938271604938272,0,0,0.04938271604938272,9.876543209876544,0)" xlink:href="#K"/><use transform="matrix(0.04938271604938272,0,0,0.04938271604938272,19.75308641975309,0)" xlink:href="#J"/><use transform="matrix(0.04938271604938272,0,0,0.04938271604938272,34.51851851851852,0)" xlink:href="#E"/></g><path d="M100-194c62-1 85 37 85 99 1 63-27 99-86 99S16-35 15-95c0-66 28-99 85-99zM99-20c44 1 53-31 53-75 0-43-8-75-51-75s-53 32-53 75 10 74 51 75" id="R"/><g id="i"><use transform="matrix(0.04938271604938272,0,0,0.04938271604938272,0,0)" xlink:href="#H"/><use transform="matrix(0.04938271604938272,0,0,0.04938271604938272,9.876543209876544,0)" xlink:href="#R"/><use transform="matrix(0.04938271604938272,0,0,0.04938271604938272,19.75308641975309,0)" xlink:href="#M"/><use transform="matrix(0.04938271604938272,0,0,0.04938271604938272,28.641975308641978,0)" xlink:href="#C"/><use transform="matrix(0.04938271604938272,0,0,0.04938271604938272,38.51851851851852,0)" xlink:href="#J"/><use transform="matrix(0.04938271604938272,0,0,0.04938271604938272,53.28395061728394,0)" xlink:href="#E"/><use transform="matrix(0.04938271604938272,0,0,0.04938271604938272,63.1604938271605,0)" xlink:href="#Q"/><use transform="matrix(0.04938271604938272,0,0,0.04938271604938272,73.03703703703704,0)" xlink:href="#I"/></g><path d="M206 0h-36l-40-164L89 0H53L-1-190h32L70-26l43-164h34l41 164 42-164h31" id="S"/><g id="k"><use transform="matrix(0.05,0,0,0.05,0,0)" xlink:href="#L"/><use transform="matrix(0.05,0,0,0.05,10,0)" xlink:href="#K"/><use transform="matrix(0.05,0,0,0.05,20,0)" xlink:href="#D"/><use transform="matrix(0.05,0,0,0.05,29,0)" xlink:href="#D"/><use transform="matrix(0.05,0,0,0.05,38,0)" xlink:href="#S"/><use transform="matrix(0.05,0,0,0.05,50.95,0)" xlink:href="#R"/><use transform="matrix(0.05,0,0,0.05,60.95,0)" xlink:href="#F"/><use transform="matrix(0.05,0,0,0.05,66.9,0)" xlink:href="#H"/></g><g id="l"><use transform="matrix(0.04938271604938272,0,0,0.04938271604938272,0,0)" xlink:href="#K"/><use transform="matrix(0.04938271604938272,0,0,0.04938271604938272,9.876543209876544,0)" xlink:href="#M"/><use transform="matrix(0.04938271604938272,0,0,0.04938271604938272,18.765432098765434,0)" xlink:href="#M"/><use transform="matrix(0.04938271604938272,0,0,0.04938271604938272,27.654320987654323,0)" xlink:href="#R"/><use transform="matrix(0.04938271604938272,0,0,0.04938271604938272,37.53086419753087,0)" xlink:href="#C"/><use transform="matrix(0.04938271604938272,0,0,0.04938271604938272,47.40740740740741,0)" xlink:href="#Q"/><use transform="matrix(0.04938271604938272,0,0,0.04938271604938272,57.283950617283956,0)" xlink:href="#I"/><use transform="matrix(0.04938271604938272,0,0,0.04938271604938272,62.22222222222223,0)" xlink:href="#D"/></g><g id="m"><use transform="matrix(0.04938271604938272,0,0,0.04938271604938272,0,0)" xlink:href="#G"/><use transform="matrix(0.04938271604938272,0,0,0.04938271604938272,3.901234567901235,0)" xlink:href="#H"/></g><path d="M33 0v-248h34V0H33" id="T"/><g id="n"><use transform="matrix(0.04938271604938272,0,0,0.04938271604938272,0,0)" xlink:href="#C"/><use transform="matrix(0.04938271604938272,0,0,0.04938271604938272,9.876543209876544,0)" xlink:href="#D"/><use transform="matrix(0.04938271604938272,0,0,0.04938271604938272,18.765432098765434,0)" xlink:href="#E"/><use transform="matrix(0.04938271604938272,0,0,0.04938271604938272,28.641975308641978,0)" xlink:href="#F"/><use transform="matrix(0.04938271604938272,0,0,0.04938271604938272,34.51851851851852,0)" xlink:href="#T"/><use transform="matrix(0.04938271604938272,0,0,0.04938271604938272,39.45679012345679,0)" xlink:href="#H"/></g><path d="M115-194c53 0 69 39 70 98 0 66-23 100-70 100C84 3 66-7 56-30L54 0H23l1-261h32v101c10-23 28-34 59-34zm-8 174c40 0 45-34 45-75 0-40-5-75-45-74-42 0-51 32-51 76 0 43 10 73 51 73" id="U"/><g id="o"><use transform="matrix(0.04938271604938272,0,0,0.04938271604938272,0,0)" xlink:href="#U"/><use transform="matrix(0.04938271604938272,0,0,0.04938271604938272,9.876543209876544,0)" xlink:href="#F"/><use transform="matrix(0.04938271604938272,0,0,0.04938271604938272,15.753086419753087,0)" xlink:href="#K"/><use transform="matrix(0.04938271604938272,0,0,0.04938271604938272,25.629629629629633,0)" xlink:href="#Q"/><use transform="matrix(0.04938271604938272,0,0,0.04938271604938272,35.50617283950618,0)" xlink:href="#M"/><use transform="matrix(0.04938271604938272,0,0,0.04938271604938272,44.39506172839506,0)" xlink:href="#P"/></g><g id="p"><use transform="matrix(0.04938271604938272,0,0,0.04938271604938272,0,0)" xlink:href="#K"/><use transform="matrix(0.04938271604938272,0,0,0.04938271604938272,9.876543209876544,0)" xlink:href="#M"/><use transform="matrix(0.04938271604938272,0,0,0.04938271604938272,18.765432098765434,0)" xlink:href="#M"/><use transform="matrix(0.04938271604938272,0,0,0.04938271604938272,27.654320987654323,0)" xlink:href="#R"/><use transform="matrix(0.04938271604938272,0,0,0.04938271604938272,37.53086419753087,0)" xlink:href="#C"/><use transform="matrix(0.04938271604938272,0,0,0.04938271604938272,47.40740740740741,0)" xlink:href="#Q"/><use transform="matrix(0.04938271604938272,0,0,0.04938271604938272,57.283950617283956,0)" xlink:href="#I"/></g><g id="q"><use transform="matrix(0.04938271604938272,0,0,0.04938271604938272,0,0)" xlink:href="#M"/><use transform="matrix(0.04938271604938272,0,0,0.04938271604938272,8.88888888888889,0)" xlink:href="#K"/><use transform="matrix(0.04938271604938272,0,0,0.04938271604938272,18.765432098765434,0)" xlink:href="#F"/><use transform="matrix(0.04938271604938272,0,0,0.04938271604938272,24.641975308641978,0)" xlink:href="#H"/><use transform="matrix(0.04938271604938272,0,0,0.04938271604938272,34.51851851851852,0)" xlink:href="#D"/></g><g id="r"><use transform="matrix(0.04938271604938272,0,0,0.04938271604938272,0,0)" xlink:href="#K"/><use transform="matrix(0.04938271604938272,0,0,0.04938271604938272,9.876543209876544,0)" xlink:href="#M"/><use transform="matrix(0.04938271604938272,0,0,0.04938271604938272,18.765432098765434,0)" xlink:href="#M"/><use transform="matrix(0.04938271604938272,0,0,0.04938271604938272,27.654320987654323,0)" xlink:href="#R"/><use transform="matrix(0.04938271604938272,0,0,0.04938271604938272,37.53086419753087,0)" xlink:href="#C"/><use transform="matrix(0.04938271604938272,0,0,0.04938271604938272,47.40740740740741,0)" xlink:href="#Q"/><use transform="matrix(0.04938271604938272,0,0,0.04938271604938272,57.283950617283956,0)" xlink:href="#I"/><use transform="matrix(0.04938271604938272,0,0,0.04938271604938272,62.22222222222223,0)" xlink:href="#T"/><use transform="matrix(0.04938271604938272,0,0,0.04938271604938272,67.16049382716051,0)" xlink:href="#H"/></g><g id="s"><use transform="matrix(0.05,0,0,0.05,0,0)" xlink:href="#E"/><use transform="matrix(0.05,0,0,0.05,10,0)" xlink:href="#Q"/><use transform="matrix(0.05,0,0,0.05,20,0)" xlink:href="#C"/><use transform="matrix(0.05,0,0,0.05,30,0)" xlink:href="#J"/></g><path d="M179-190L93 31C79 59 56 82 12 73V49c39 6 53-20 64-50L1-190h34L92-34l54-156h33" id="V"/><g id="t"><use transform="matrix(0.04938271604938272,0,0,0.04938271604938272,0,0)" xlink:href="#I"/><use transform="matrix(0.04938271604938272,0,0,0.04938271604938272,4.938271604938272,0)" xlink:href="#V"/><use transform="matrix(0.04938271604938272,0,0,0.04938271604938272,13.827160493827162,0)" xlink:href="#L"/><use transform="matrix(0.04938271604938272,0,0,0.04938271604938272,23.703703703703706,0)" xlink:href="#E"/></g><g id="u"><use transform="matrix(0.04938271604938272,0,0,0.04938271604938272,0,0)" xlink:href="#Q"/><use transform="matrix(0.04938271604938272,0,0,0.04938271604938272,9.876543209876544,0)" xlink:href="#C"/><use transform="matrix(0.04938271604938272,0,0,0.04938271604938272,19.75308641975309,0)" xlink:href="#J"/><use transform="matrix(0.04938271604938272,0,0,0.04938271604938272,34.51851851851852,0)" xlink:href="#U"/><use transform="matrix(0.04938271604938272,0,0,0.04938271604938272,44.39506172839506,0)" xlink:href="#E"/><use transform="matrix(0.04938271604938272,0,0,0.04938271604938272,54.27160493827161,0)" xlink:href="#F"/></g><g id="v"><use transform="matrix(0.04938271604938272,0,0,0.04938271604938272,0,0)" xlink:href="#M"/><use transform="matrix(0.04938271604938272,0,0,0.04938271604938272,8.88888888888889,0)" xlink:href="#O"/><use transform="matrix(0.04938271604938272,0,0,0.04938271604938272,17.77777777777778,0)" xlink:href="#O"/></g><g id="w"><use transform="matrix(0.04938271604938272,0,0,0.04938271604938272,0,0)" xlink:href="#I"/><use transform="matrix(0.04938271604938272,0,0,0.04938271604938272,4.938271604938272,0)" xlink:href="#F"/><use transform="matrix(0.04938271604938272,0,0,0.04938271604938272,10.814814814814817,0)" xlink:href="#K"/><use transform="matrix(0.04938271604938272,0,0,0.04938271604938272,20.69135802469136,0)" xlink:href="#Q"/><use transform="matrix(0.04938271604938272,0,0,0.04938271604938272,30.567901234567906,0)" xlink:href="#D"/><use transform="matrix(0.04938271604938272,0,0,0.04938271604938272,39.4567901234568,0)" xlink:href="#K"/><use transform="matrix(0.04938271604938272,0,0,0.04938271604938272,49.33333333333334,0)" xlink:href="#M"/><use transform="matrix(0.04938271604938272,0,0,0.04938271604938272,58.22222222222223,0)" xlink:href="#I"/><use transform="matrix(0.04938271604938272,0,0,0.04938271604938272,63.1604938271605,0)" xlink:href="#G"/><use transform="matrix(0.04938271604938272,0,0,0.04938271604938272,67.06172839506173,0)" xlink:href="#R"/><use transform="matrix(0.04938271604938272,0,0,0.04938271604938272,76.93827160493828,0)" xlink:href="#Q"/><use transform="matrix(0.04938271604938272,0,0,0.04938271604938272,86.81481481481482,0)" xlink:href="#D"/></g><g id="y"><use transform="matrix(0.04938271604938272,0,0,0.04938271604938272,0,0)" xlink:href="#G"/><use transform="matrix(0.04938271604938272,0,0,0.04938271604938272,3.901234567901235,0)" xlink:href="#H"/></g><g id="z"><use transform="matrix(0.05,0,0,0.05,0,0)" xlink:href="#G"/><use transform="matrix(0.05,0,0,0.05,3.95,0)" xlink:href="#Q"/><use transform="matrix(0.05,0,0,0.05,13.949999999999998,0)" xlink:href="#I"/></g><path d="M24 0v-261h32V0H24" id="W"/><g id="A"><use transform="matrix(0.04938271604938272,0,0,0.04938271604938272,0,0)" xlink:href="#O"/><use transform="matrix(0.04938271604938272,0,0,0.04938271604938272,8.88888888888889,0)" xlink:href="#K"/><use transform="matrix(0.04938271604938272,0,0,0.04938271604938272,18.765432098765434,0)" xlink:href="#W"/><use transform="matrix(0.04938271604938272,0,0,0.04938271604938272,22.666666666666668,0)" xlink:href="#C"/><use transform="matrix(0.04938271604938272,0,0,0.04938271604938272,32.543209876543216,0)" xlink:href="#E"/></g><g id="B"><use transform="matrix(0.05,0,0,0.05,0,0)" xlink:href="#H"/><use transform="matrix(0.05,0,0,0.05,10,0)" xlink:href="#E"/><use transform="matrix(0.05,0,0,0.05,20,0)" xlink:href="#D"/><use transform="matrix(0.05,0,0,0.05,29,0)" xlink:href="#M"/><use transform="matrix(0.05,0,0,0.05,38,0)" xlink:href="#F"/><use transform="matrix(0.05,0,0,0.05,43.95,0)" xlink:href="#G"/><use transform="matrix(0.05,0,0,0.05,47.900000000000006,0)" xlink:href="#L"/><use transform="matrix(0.05,0,0,0.05,57.900000000000006,0)" xlink:href="#I"/><use transform="matrix(0.05,0,0,0.05,62.900000000000006,0)" xlink:href="#G"/><use transform="matrix(0.05,0,0,0.05,66.85000000000001,0)" xlink:href="#R"/><use transform="matrix(0.05,0,0,0.05,76.85000000000001,0)" xlink:href="#Q"/></g></defs></g></svg>